# xmcd
#
# Track frame offsets:
#	150
#	19492
#	34036
#	53262
#	71290
#	86488
#	103294
#	121804
#	134445
#	151154
#	167888
#	188056
#	202126
#	218491
#	231452
#	246957
#
# Disc length: 3515 seconds
#
# Revision: 1
# Processed by: cddbd v1.5.2PL0 Copyright (c) Steve Scherf et al.
# Submitted via: audiograbber 1.83.01
#
DISCID=db0db910
DTITLE=Pam Clarke - Diamonds and Jewels
DYEAR=2003
DGENRE=Country
TTITLE0=Diamonds and Jewels
TTITLE1=Blackboard Of My Heart
TTITLE2=A Bushman Can't Survive
TTITLE3=Fly Like A Bird
TTITLE4=Hey Sweet Momma
TTITLE5=Coat Of Many Colours
TTITLE6=Livin' On Love
TTITLE7=Grandma's Feather Bed
TTITLE8=Those Three Words 'I Love You'
TTITLE9=Where Country Is
TTITLE10=Stand By Your Man
TTITLE11=Oh Lonesome Me
TTITLE12=The Verandah
TTITLE13=Tennessee Waltz
TTITLE14=(Turn Out The Light) and Love Me Tonight
TTITLE15=You're My Best Friend
EXTD=
EXTT0=
EXTT1=
EXTT2=
EXTT3=
EXTT4=
EXTT5=
EXTT6=
EXTT7=
EXTT8=
EXTT9=
EXTT10=
EXTT11=
EXTT12=
EXTT13=
EXTT14=
EXTT15=
PLAYORDER=
